<?xml version="1.0" encoding="UTF-8"?>
<svg width="8px" height="8px" viewBox="0 0 8 8" version="1.1" xmlns="http://www.w3.org/2000/svg" xmlns:xlink="http://www.w3.org/1999/xlink">
    <!-- Generator: sketchtool 59.1 (101010) - https://sketch.com -->
    <title>4B544155-30D1-4FD3-92DE-6C7C4CE18383</title>
    <desc>Created with sketchtool.</desc>
    <g id="Page-1" stroke="none" stroke-width="1" fill="none" fill-rule="evenodd">
        <g id="DDC-UI-Kit-1" transform="translate(-983.000000, -4352.000000)" fill="#E04361" fill-rule="nonzero">
            <g id="Group-47" transform="translate(983.000000, 4352.000000)">
                <path d="M0.219669914,1.28033009 L6.21966991,7.28033009 C6.51256313,7.5732233 6.98743687,7.5732233 7.28033009,7.28033009 C7.5732233,6.98743687 7.5732233,6.51256313 7.28033009,6.21966991 L1.28033009,0.219669914 C0.987436867,-0.0732233047 0.512563133,-0.0732233047 0.219669914,0.219669914 C-0.0732233047,0.512563133 -0.0732233047,0.987436867 0.219669914,1.28033009 Z" id="Path-20"></path>
                <path d="M0.219669914,1.28033009 L6.21966991,7.28033009 C6.51256313,7.5732233 6.98743687,7.5732233 7.28033009,7.28033009 C7.5732233,6.98743687 7.5732233,6.51256313 7.28033009,6.21966991 L1.28033009,0.219669914 C0.987436867,-0.0732233047 0.512563133,-0.0732233047 0.219669914,0.219669914 C-0.0732233047,0.512563133 -0.0732233047,0.987436867 0.219669914,1.28033009 Z" id="Path-20" transform="translate(3.750000, 3.750000) scale(1, -1) translate(-3.750000, -3.750000) "></path>
            </g>
        </g>
    </g>
</svg>
